<?xml version="1.0" encoding="utf-8"?>
<!-- Generator: Adobe Illustrator 19.0.0, SVG Export Plug-In . SVG Version: 6.00 Build 0)  -->
<!DOCTYPE svg PUBLIC "-//W3C//DTD SVG 1.1//EN" "http://www.w3.org/Graphics/SVG/1.1/DTD/svg11.dtd">
<svg version="1.1" id="Layer_1" xmlns="http://www.w3.org/2000/svg" xmlns:xlink="http://www.w3.org/1999/xlink" x="0px" y="0px"
	 width="100px" height="100px" viewBox="0 0 100 100" enable-background="new 0 0 100 100" xml:space="preserve">
<g>
	<circle id="XMLID_7_" fill="#5FB2C1" cx="50" cy="50" r="50"/>
</g>
<g>
	<g opacity="0.2">
		<path id="XMLID_6_" fill="#231F20" d="M81.2,68.8c0,3.5-2.8,6.2-6.2,6.2H25c-3.5,0-6.2-2.8-6.2-6.2V37.5c0-3.5,2.8-6.2,6.2-6.2h50
			c3.5,0,6.2,2.8,6.2,6.2V68.8z"/>
	</g>
	<g>
		<path id="XMLID_5_" fill="#E0E0D1" d="M81.2,65.6c0,3.5-2.8,6.2-6.2,6.2H25c-3.5,0-6.2-2.8-6.2-6.2V34.4c0-3.5,2.8-6.2,6.2-6.2h50
			c3.5,0,6.2,2.8,6.2,6.2V65.6z"/>
	</g>
	<g opacity="0.2">
		<g>
			<path id="XMLID_4_" fill="#231F20" d="M55.5,47.2c-3-3.4-8-3.4-11,0L20.4,67.5c-0.3,0.3-0.5,0.6-0.7,0.9c1.1,2,3.1,3.4,5.3,3.4
				h50c2.3,0,4.2-1.4,5.3-3.4c-0.2-0.3-0.4-0.6-0.7-0.9L55.5,47.2z"/>
		</g>
	</g>
	<g>
		<g>
			<path id="XMLID_3_" fill="#E0E0D1" d="M55.5,50c-3-3-8-3-11,0L20.4,68c-0.3,0.3-0.5,0.5-0.7,0.8c1.1,1.8,3.1,3,5.3,3h50
				c2.3,0,4.2-1.2,5.3-3c-0.2-0.3-0.4-0.5-0.7-0.8L55.5,50z"/>
		</g>
	</g>
	<g opacity="0.2">
		<g>
			<path id="XMLID_2_" fill="#231F20" d="M19.7,31.5c1.1-2,3.1-3.4,5.3-3.4h50c2.3,0,4.2,1.4,5.3,3.4c-0.2,0.3-0.4,0.6-0.7,0.9
				L55.5,52.8c-3,3.4-8,3.4-11,0L19.7,31.5z"/>
		</g>
	</g>
	<g>
		<g>
			<path id="XMLID_1_" fill="#FFFFFF" d="M44.5,50c3,3,8,3,11,0l24.1-18c0.3-0.3,0.5-0.5,0.7-0.8c-1.1-1.8-3.1-3-5.3-3H25
				c-2.3,0-4.2,1.2-5.3,3c0.2,0.3,0.4,0.5,0.7,0.8L44.5,50z"/>
		</g>
	</g>
</g>
</svg>
