<?xml version="1.0" encoding="utf-8"?>
<!-- Generator: Adobe Illustrator 19.0.0, SVG Export Plug-In . SVG Version: 6.00 Build 0)  -->
<!DOCTYPE svg PUBLIC "-//W3C//DTD SVG 1.1//EN" "http://www.w3.org/Graphics/SVG/1.1/DTD/svg11.dtd">
<svg version="1.1" id="Layer_1" xmlns="http://www.w3.org/2000/svg" xmlns:xlink="http://www.w3.org/1999/xlink" x="0px" y="0px"
	 width="100px" height="100px" viewBox="0 0 100 100" enable-background="new 0 0 100 100" xml:space="preserve">
<circle id="XMLID_13_" fill="#5FB2C1" cx="50" cy="50" r="50"/>
<path id="XMLID_12_" opacity="0.2" fill="#231F20" enable-background="new    " d="M70.8,80.5l8.1-8.1c1.3-1.3,1-3.9-0.9-5.8
	l-5.5-5.5L71.4,60L41.9,30.5L28.7,26l-6.6-2.3l2.3,6.6l4.5,13.2L58.4,73l1.1,1.1l5.5,5.5C66.8,81.4,69.4,81.8,70.8,80.5z"/>
<path id="XMLID_11_" fill="#58A38E" d="M58.4,69.2c-1.8-1.8-2.2-4.4-0.9-5.8l8.1-8.1c1.3-1.3,3.9-1,5.8,0.9l6.6,6.6
	c1.8,1.8,2.2,4.4,0.9,5.8l-8.1,8.1c-1.3,1.3-3.9,1-5.8-0.9L58.4,69.2z"/>
<rect id="XMLID_10_" x="53.3" y="22.1" transform="matrix(0.7071 -0.7071 0.7071 0.7071 -14.6421 52.0919)" fill="#76C2AF" width="4.6" height="43.2"/>
<rect id="XMLID_9_" x="45" y="24.2" transform="matrix(0.7071 -0.7071 0.7071 0.7071 -19.0296 48.9527)" fill="#76C2AF" width="9.2" height="46.4"/>
<rect id="XMLID_8_" x="43.6" y="31.9" transform="matrix(0.7071 -0.7071 0.7071 0.7071 -24.3554 48.103)" fill="#76C2AF" width="4.6" height="43.2"/>
<g>
	<polygon id="XMLID_7_" fill="#4F5D73" points="22.2,20 24.4,26.6 28.7,22.3 	"/>
	<polygon id="XMLID_6_" fill="#F5CF87" points="41.9,26.8 28.7,22.3 24.4,26.6 28.9,39.8 30.5,38.2 34.4,38.7 33.2,31.1 40.9,32.2 
		40.3,28.4 	"/>
</g>
<path id="XMLID_5_" opacity="0.2" fill="#231F20" enable-background="new    " d="M77.9,25.2c-3-3-20.4,9.4-31.1,20.1
	c-5.3,5.3-7.9,9.1-8.9,12c-3.3-0.3-6.9,0.9-9.2,3.3c-1.5,1.5-2.3,3.2-3,5c-1.2,3.5-2.3,7.9-7,11c3.5,3.5,17.2,4.5,23.8-2.2
	c0.7-0.7,1.3-1.5,1.8-2.4c1.2-2.1,1.7-4.5,1.4-6.8c2.9-1,6.8-3.6,12-8.9C68.5,45.6,80.9,28.2,77.9,25.2z"/>
<path id="XMLID_4_" fill="#FFFFFF" d="M46.9,42.2c-10.7,10.7-10.6,15.5-7.6,18.6c3,3,7.9,3.1,18.6-7.6S81,25.2,78,22.1
	C74.9,19.1,57.5,31.5,46.9,42.2z"/>
<path id="XMLID_3_" fill="#E5E276" d="M18.8,73.4c3.5,3.5,17.2,4.5,23.8-2.2c0.7-0.7,1.3-1.5,1.8-2.4C34,68.5,28.5,65,25.8,62.4
	C24.6,65.9,23.4,70.3,18.8,73.4z"/>
<path id="XMLID_2_" fill="#4F5D73" d="M43.4,56.6c-3.8-3.8-10.8-3-14.6,0.8c-1.5,1.5-2.3,3.2-3,5c2.7,2.7,8,10.8,18.6,6.4
	C46.5,65,46.5,59.7,43.4,56.6z"/>
<path id="XMLID_1_" fill="#E5E276" d="M25.8,62.5c0,0,6.3-1.2,9.3,3.2s9.3,3.2,9.3,3.2l-8.1,4.5l-8.1-5.9L25.8,62.5z"/>
</svg>
