<svg enable-background="new 0 0 100 100" height="100" viewBox="0 0 100 100" width="100" xmlns="http://www.w3.org/2000/svg"><circle cx="50" cy="50" fill="#5fb2c1" r="50"/><g fill="#231f20" opacity=".2"><path d="m66.3 68.8c-1 0-2.1-.5-2.7-1.5-.9-1.5-.4-3.4 1-4.3l15.8-9.8v-.1s0-.1 0-.1l-15.8-9.8c-1.5-.9-1.9-2.8-1-4.3s2.8-1.9 4.3-1l16.6 10.2.3.3c1.2 1.2 1.9 2.9 1.9 4.7s-.7 3.4-1.9 4.7l-.2.2-16.6 10.3c-.5.3-1.1.5-1.7.5z"/><path d="m33.7 68.8c-.6 0-1.1-.2-1.6-.5l-16.7-10.3-.3-.3c-1.2-1.2-1.9-2.9-1.9-4.7s.7-3.4 1.9-4.7l.3-.3 16.6-10c1.5-.9 3.4-.4 4.3 1 .9 1.5.4 3.4-1 4.3l-15.8 9.7v.1s0 .1 0 .1l15.8 9.8c1.5.9 1.9 2.8 1 4.3-.6.9-1.6 1.5-2.6 1.5z"/></g><path d="m39.8 82.8c-.4 0-.7-.1-1.1-.2-1.6-.6-2.4-2.4-1.8-4l20.3-53.1c.6-1.6 2.4-2.4 4-1.8s2.4 2.4 1.8 4l-20.2 53.1c-.5 1.2-1.7 2-3 2z" fill="#231f20" opacity=".2"/><g fill="#fff"><path d="m66.3 65.6c-1 0-2.1-.5-2.7-1.5-.9-1.5-.4-3.4 1-4.3l15.8-9.8c0-.1 0-.1 0-.2l-15.8-9.8c-1.5-.9-1.9-2.8-1-4.3s2.8-1.9 4.3-1l16.6 10.2.3.3c2.6 2.6 2.6 6.8 0 9.3l-.3.3-16.5 10.4c-.5.3-1.1.4-1.7.4z"/><path d="m33.7 65.6c-.6 0-1.1-.1-1.6-.5l-16.7-10.2-.3-.3c-2.6-2.6-2.6-6.8 0-9.3l.3-.3 16.6-10.2c1.5-.9 3.4-.5 4.3 1s.4 3.4-1 4.3l-15.8 9.8v.2l15.8 9.8c1.5.9 1.9 2.8 1 4.3-.6.9-1.6 1.4-2.6 1.4z"/><path d="m39.8 79.7c-.4 0-.7-.1-1.1-.2-1.6-.6-2.4-2.4-1.8-4l20.3-53.1c.6-1.6 2.4-2.4 4-1.8s2.4 2.4 1.8 4l-20.2 53.1c-.5 1.2-1.7 2-3 2z"/></g></svg>