<svg enable-background="new 0 0 100 100" height="100" viewBox="0 0 100 100" width="100" xmlns="http://www.w3.org/2000/svg"><circle cx="50" cy="50" fill="#5fb2c1" r="50"/><path d="m81.2 75c0 3.5-2.8 6.2-6.2 6.2h-50c-3.5 0-6.2-2.8-6.2-6.2v-46.9c0-3.5 2.8-6.2 6.2-6.2h50c3.5 0 6.2 2.8 6.2 6.2z" fill="#231f20" opacity=".2"/><path d="m18.7 33.6v38.3c0 3.5 2.8 6.2 6.2 6.2h50c3.5 0 6.2-2.8 6.2-6.2v-38.3z" fill="#fff"/><path d="m81.2 28.1c0-3.5-2.8-6.2-6.2-6.2h-50c-3.5 0-6.2 2.8-6.2 6.2v9.4h62.5v-9.4z" fill="#231f20" opacity=".2"/><path d="m81.2 25c0-3.5-2.8-6.2-6.2-6.2h-50c-3.5 0-6.2 2.8-6.2 6.2v9.4h62.5v-9.4z" fill="#e0e0d1"/><circle cx="35.9" cy="26.6" fill="#e0995e" r="3.1"/><circle cx="45.3" cy="26.6" fill="#76c2af" r="3.1"/><circle cx="26.6" cy="26.6" fill="#c75c5c" r="3.1"/><path d="m25 43.8h18.8v28.1h-18.8z" fill="#4f5d73"/><g fill="#e0e0d1"><path d="m50 43.8h25v3.1h-25z"/><path d="m50 50h25v3.1h-25z"/><path d="m50 56.2h25v3.1h-25z"/><path d="m50 62.5h25v3.1h-25z"/><path d="m50 68.8h25v3.1h-25z"/></g></svg>